<?xml version="1.0" encoding="UTF-8"?>
<svg id="a" data-name="Layer 1" xmlns="http://www.w3.org/2000/svg" width="2457.036" height="1394.287" viewBox="0 0 2457.036 1394.287">
  <g>
    <rect x="590.455" y="295.668" width="10.537" height="77.735"/>
    <rect x="646.844" y="295.668" width="10.537" height="77.735"/>
    <polygon points="454.394 376.075 462.22 369.833 434.212 334.723 462.22 299.613 454.394 293.37 427.809 326.697 401.224 293.37 393.399 299.613 421.407 334.723 393.399 369.833 401.224 376.075 427.809 342.749 454.394 376.075"/>
    <polygon points="360.106 293.19 333.521 326.517 306.936 293.19 299.11 299.433 327.118 334.543 299.11 369.653 306.936 375.895 333.521 342.569 360.106 375.895 367.931 369.653 339.923 334.543 367.931 299.433 360.106 293.19"/>
    <polygon points="516.267 373.403 526.308 373.403 562.074 297.354 553.018 293.095 521.293 360.556 489.687 293.373 480.63 297.633 516.267 373.403"/>
  </g>
  <g>
    <rect x="704.236" y="882.847" width="10.537" height="77.735"/>
    <rect x="760.624" y="882.847" width="10.537" height="77.735"/>
    <polygon points="568.175 963.254 576 957.012 547.993 921.902 576 886.792 568.175 880.549 541.59 913.876 515.005 880.549 507.18 886.792 535.187 921.902 507.18 957.012 515.005 963.254 541.59 929.928 568.175 963.254"/>
    <polygon points="630.048 960.582 640.089 960.582 675.855 884.533 666.799 880.274 635.073 947.735 603.467 880.552 594.411 884.811 630.048 960.582"/>
  </g>
  <g>
    <path d="M1570.149,512.347v-216.537h19.022v200.451h19.49v16.086h-38.512Z"/>
    <path d="M1635.476,512.347l19.333-216.537h23.974l19.49,216.537h-19.336l-2.937-41.451h-18.871l-3.247,41.451h-18.406Zm22.426-55.99h17.015l-4.023-61.403c-1.237-19.179-2.01-35.883-2.783-63.416h-3.093c-.775,27.532-1.702,44.237-2.939,63.416l-4.177,61.403Z"/>
    <path d="M1734.37,512.347v-200.607h-19.49v-15.93h57.848v15.93h-19.49v200.607h-18.868Z"/>
    <path d="M1816.496,512.347l-19.025-216.537h19.487l7.581,117.085c1.237,19.333,2.01,36.037,2.629,63.724h2.939c.773-27.686,1.545-44.391,2.783-63.724l7.578-117.085h18.56l-18.56,216.537h-23.972Z"/>
    <path d="M1889.717,512.347v-216.537h19.025v216.537h-19.025Z"/>
    <path d="M1944.218,512.347v-216.537h40.676v15.93h-21.651v76.097h18.404v15.467h-18.404v92.957h23.199v16.086h-42.224Z"/>
    <path d="M2014.188,477.857v-36.039l18.56-4.175v42.07c0,13.3,2.939,19.798,9.28,19.798,6.187,0,9.28-6.497,9.28-19.798,0-16.55-4.949-36.194-14.384-64.034l-9.591-27.84c-9.434-27.685-12.838-46.09-12.838-61.557,0-22.428,8.818-32.482,26.603-32.482,17.942,0,26.295,10.054,26.295,31.089v34.491l-18.252,4.023v-39.906c0-10.207-2.783-15.002-8.351-15.002s-8.353,4.795-8.353,15.002c0,14.23,2.939,30.471,12.374,57.848l9.745,27.685c9.591,27.377,15.002,49.804,15.002,68.828,0,24.592-8.97,36.502-27.84,36.502-18.096,0-27.53-11.91-27.53-36.502Zm48.257-225.354l-11.909,31.243h-18.56l-11.911-31.243h13.611l7.578,17.014,7.581-17.014h13.611Z"/>
    <path d="M2102.563,483.114v-187.304h19.025v186.996c0,12.063,2.629,16.549,8.815,16.549,6.341,0,8.815-4.486,8.815-16.549v-186.996h18.868v187.304c0,22.118-8.661,31.245-27.684,31.245s-27.84-9.126-27.84-31.245Z"/>
  </g>
  <g>
    <path d="M504.224,805.934v-216.537h26.449c20.414,0,29.851,11.755,29.851,35.265v146.316c0,23.202-9.437,34.957-29.851,34.957h-26.449Zm19.025-15.621h6.341c8.661,0,12.063-6.187,12.063-19.025v-146.781c0-13.303-3.401-19.644-12.063-19.644h-6.341v185.449Z"/>
    <path d="M588.578,805.934v-12.528l27.376-171.066c.927-5.257,2.164-11.29,3.401-16.086l-.773-1.545c-4.177,.154-6.495,.154-10.363,.154h-17.012v-15.467h46.555v12.374l-27.222,171.682c-.927,5.414-2.01,10.363-3.401,15.624l.773,1.391c3.404-.154,5.568-.154,8.815-.154h22.583v15.621h-50.732Z"/>
    <path d="M669.996,805.934v-216.537h19.022v216.537h-19.022Z"/>
    <path d="M724.497,805.934v-216.537h40.679v15.932h-21.656v76.097h18.406v15.467h-18.406v92.956h23.202v16.086h-42.224Z"/>
    <path d="M794.467,771.442v-36.037l18.56-4.177v42.07c0,13.303,2.937,19.798,9.28,19.798,6.187,0,9.28-6.495,9.28-19.798,0-16.548-4.949-36.191-14.386-64.032l-9.588-27.84c-9.434-27.686-12.838-46.093-12.838-61.56,0-22.426,8.815-32.479,26.603-32.479,17.942,0,26.295,10.053,26.295,31.088v34.492l-18.252,4.02v-39.903c0-10.209-2.783-15.002-8.351-15.002s-8.353,4.793-8.353,15.002c0,14.23,2.939,30.469,12.374,57.845l9.745,27.686c9.588,27.376,15.002,49.802,15.002,68.827,0,24.593-8.97,36.502-27.84,36.502-18.096,0-27.53-11.909-27.53-36.502Z"/>
    <path d="M882.841,805.934v-216.537h30.623l11.909,115.847c1.702,16.396,3.096,36.659,4.487,67.746h2.783c1.391-31.088,2.785-51.35,4.641-67.436l12.22-116.157h31.242v216.537h-18.868l.154-105.64c.154-22.58,.773-45.628,2.475-77.489l-2.939-.311-19.798,183.439h-21.346l-18.56-183.439-3.091,.157c1.391,31.707,1.853,55.062,1.853,77.643l.157,105.64h-17.942Z"/>
    <path d="M1016.384,776.702v-187.305h19.025v186.995c0,12.066,2.629,16.55,8.815,16.55,6.341,0,8.815-4.485,8.815-16.55v-186.995h18.868v187.305c0,22.118-8.661,31.242-27.684,31.242s-27.84-9.124-27.84-31.242Z"/>
    <path d="M1150.29,776.702v-187.305h19.025v186.995c0,12.066,2.629,16.55,8.815,16.55,6.341,0,8.815-4.485,8.815-16.55v-186.995h18.868v187.305c0,22.118-8.661,31.242-27.684,31.242s-27.84-9.124-27.84-31.242Z"/>
    <path d="M1241.452,805.934v-216.537h27.376l16.704,129.922c1.702,12.992,3.712,29.542,5.722,50.421l3.093-.308c-1.856-23.818-3.401-55.681-3.401-78.572l-.311-101.463h18.406v216.537h-26.292l-17.634-131.47c-1.856-13.919-3.247-26.601-5.568-50.11l-3.093,.308c1.548,22.426,3.093,55.373,3.093,75.325l.308,105.948h-18.404Z"/>
  </g>
  <g>
    <path d="M861.856,1099.54v-216.537h26.449c20.414,0,29.851,11.755,29.851,35.265v146.318c0,23.199-9.437,34.954-29.851,34.954h-26.449Zm19.025-15.621h6.341c8.661,0,12.063-6.187,12.063-19.025v-146.781c0-13.303-3.401-19.644-12.063-19.644h-6.341v185.449Z"/>
    <path d="M953.065,1099.54v-216.537h40.679v15.932h-21.656v76.097h18.406v15.467h-18.406v92.956h23.202v16.086h-42.224Z"/>
    <path d="M1103.169,1070.308v-187.305h19.022v186.995c0,12.066,2.631,16.55,8.818,16.55,6.341,0,8.815-4.485,8.815-16.55v-186.995h18.871v187.305c0,22.116-8.661,31.242-27.686,31.242s-27.84-9.126-27.84-31.242Z"/>
    <path d="M1071.909,882.935h-39.138v15.932h20.268v172.305c0,10.209-2.783,15.159-9.124,15.159-6.187,0-8.815-4.949-8.815-15.159v-33.255l-19.025,4.177v29.232c0,20.262,8.815,30.161,27.84,30.161,19.179,0,27.994-9.899,27.994-30.161v-188.386h0v-.005Z"/>
  </g>
  <g>
    <path d="M1265.226,968.534c-9.434-27.376-12.374-43.615-12.374-57.845,0-10.209,2.785-15.005,8.353-15.005s8.351,4.795,8.351,15.005v39.903l18.252-4.02v-34.492c0-21.035-8.353-31.088-26.295-31.088-17.788,0-26.603,10.053-26.603,32.479,0,15.467,3.404,33.873,12.838,61.56l9.588,27.84c9.437,27.84,14.386,47.481,14.386,64.032,0,13.303-3.093,19.798-9.28,19.798-6.343,0-9.28-6.495-9.28-19.798v-42.07l-18.56,4.177v36.037c0,24.593,9.434,36.502,27.53,36.502,18.871,0,27.84-11.909,27.84-36.502,0-19.022-5.414-41.451-15.002-68.827l-9.745-27.686Z"/>
    <path d="M1351.005,1000.087c-1.237,19.333-2.01,36.04-2.783,63.724h-2.939c-.619-27.684-1.391-44.391-2.629-63.724l-7.578-117.084h-19.49l19.025,216.537h23.974l18.56-216.537h-18.56l-7.581,117.084Z"/>
    <polygon points="1425.142 990.499 1443.548 990.499 1443.548 975.032 1425.142 975.032 1425.142 898.934 1446.798 898.934 1446.798 883.003 1406.119 883.003 1406.119 1099.54 1448.343 1099.54 1448.343 1083.454 1425.142 1083.454 1425.142 990.499"/>
    <rect x="1406.427" y="856.864" width="41.608" height="15.31"/>
    <polygon points="1474.471 898.934 1493.961 898.934 1493.961 1099.54 1512.829 1099.54 1512.829 898.934 1532.319 898.934 1532.319 883.003 1474.471 883.003 1474.471 898.934"/>
    <path d="M1603.182,883.003l-24.285,95.276-2.629-.308c2.939-26.76,3.866-42.845,3.866-63.416v-31.553h-19.022v216.537h19.022v-93.574l7.735-24.593,14.384,118.167h19.025l-20.57-141.523,20.57-75.014h-18.096Z"/>
    <rect x="1650.126" y="883.003" width="19.025" height="216.537"/>
  </g>
  <g>
    <g>
      <path d="M762.701,512.196l-19.025-216.537h19.49l7.578,117.085c1.237,19.333,2.01,36.037,2.629,63.724h2.939c.773-27.686,1.545-44.391,2.783-63.724l7.581-117.085h18.56l-18.56,216.537h-23.974Z"/>
      <path d="M835.919,512.196v-216.537h19.025v216.537h-19.025Z"/>
      <path d="M887.947,477.706v-36.039l18.56-4.175v42.07c0,13.3,2.937,19.798,9.28,19.798,6.187,0,9.28-6.497,9.28-19.798,0-16.55-4.949-36.194-14.386-64.034l-9.588-27.84c-9.434-27.685-12.838-46.09-12.838-61.557,0-22.428,8.815-32.482,26.603-32.482,17.942,0,26.295,10.054,26.295,31.089v34.491l-18.252,4.023v-39.906c0-10.207-2.783-15.002-8.351-15.002s-8.353,4.795-8.353,15.002c0,14.23,2.939,30.471,12.374,57.848l9.745,27.685c9.588,27.377,15.002,49.804,15.002,68.828,0,24.592-8.97,36.502-27.84,36.502-18.096,0-27.53-11.91-27.53-36.502Z"/>
      <path d="M976.322,512.196v-216.537h25.055c21.5,0,30.78,11.91,30.78,38.513v61.094c0,25.675-10.053,38.049-30.78,38.049h-6.033v78.881h-19.022Zm19.022-94.348h5.106c9.126,0,12.682-5.414,12.682-20.107v-66.198c0-15.004-3.555-20.416-12.682-20.416h-5.106v106.722Z"/>
      <path d="M1056.81,512.196l19.333-216.537h23.974l19.49,216.537h-19.336l-2.937-41.451h-18.871l-3.247,41.451h-18.406Zm10.672-227.364v-15.313h41.605v15.313h-41.605Zm11.755,171.374h17.015l-4.023-61.403c-1.237-19.179-2.01-35.883-2.783-63.416h-3.093c-.775,27.532-1.702,44.237-2.939,63.416l-4.177,61.403Z"/>
      <path d="M1150.29,512.196v-216.537h25.055c21.5,0,30.78,11.91,30.78,38.513v29.541c0,20.572-6.805,30.779-20.881,33.409v2.319c11.909,2.321,17.788,8.817,18.717,36.194l.927,27.53c.927,27.532,2.01,41.143,6.187,46.093l-.465,2.938h-20.416c-2.164-9.744-3.247-21.654-3.712-48.412l-.619-26.757c-.619-26.757-4.639-30.934-14.694-30.934h-1.853v106.103h-19.025Zm19.025-121.724h4.02c9.591,0,13.919-6.342,13.919-21.5v-35.883c0-15.932-4.328-21.963-13.919-21.963h-4.02v79.346Z"/>
    </g>
    <path d="M1241.76,512.196v-216.537h40.679v15.93h-21.656v76.097h18.406v15.467h-18.406v92.957h23.202v16.086h-42.224Zm.308-227.364v-15.313h41.608v15.313h-41.608Z"/>
    <path d="M1396.241,512.196v-216.537h19.025v216.537h-19.025Z"/>
    <path d="M1450.904,512.196v-216.537h40.676v15.93h-21.651v76.097h18.404v15.467h-18.404v92.957h23.199v16.086h-42.224Z"/>
    <path d="M1360.604,295.644h-39.138v15.932h20.268v172.305c0,10.209-2.783,15.159-9.124,15.159-6.187,0-8.815-4.949-8.815-15.159v-33.255l-19.025,4.177v29.232c0,20.262,8.815,30.161,27.84,30.161,19.179,0,27.994-9.899,27.994-30.161v-188.386h0v-.005Z"/>
  </g>
</svg>