<?xml version="1.0" encoding="UTF-8"?>
<svg id="a" data-name="Layer 1" xmlns="http://www.w3.org/2000/svg" width="4422.793" height="651.067" viewBox="0 0 4422.793 651.067">
  <g>
    <rect x="508.202" y="217.561" width="10.52" height="77.609"/>
    <rect x="564.499" y="217.561" width="10.52" height="77.609"/>
    <polygon points="372.361 297.838 380.173 291.605 352.211 256.552 380.173 221.499 372.361 215.267 345.819 248.539 319.277 215.267 311.464 221.499 339.427 256.552 311.464 291.605 319.277 297.838 345.819 264.565 372.361 297.838"/>
    <polygon points="278.225 215.087 251.683 248.359 225.141 215.087 217.328 221.319 245.291 256.372 217.328 291.426 225.141 297.658 251.683 264.386 278.225 297.658 286.037 291.426 258.075 256.372 286.037 221.319 278.225 215.087"/>
    <polygon points="434.134 295.17 444.158 295.17 479.867 219.244 470.825 214.992 439.151 282.344 407.596 215.269 398.555 219.522 434.134 295.17"/>
  </g>
  <g>
    <rect x="3242.112" y="217.396" width="10.52" height="77.609"/>
    <rect x="3298.409" y="217.396" width="10.52" height="77.609"/>
    <polygon points="3106.271 297.673 3114.083 291.441 3086.121 256.388 3114.083 221.335 3106.271 215.103 3079.729 248.375 3053.187 215.103 3045.374 221.335 3073.336 256.388 3045.374 291.441 3053.187 297.673 3079.729 264.401 3106.271 297.673"/>
    <polygon points="3168.044 295.006 3178.068 295.006 3213.777 219.079 3204.735 214.827 3173.061 282.18 3141.506 215.105 3132.464 219.358 3168.044 295.006"/>
  </g>
  <g>
    <path d="M1486.07,433.738V217.552h18.992v200.127h19.458v16.06h-38.45Z"/>
    <path d="M1551.291,433.738l19.302-216.187h23.936l19.458,216.187h-19.304l-2.932-41.384h-18.84l-3.242,41.384h-18.377Zm22.39-55.9h16.987l-4.016-61.304c-1.235-19.148-2.007-35.825-2.778-63.313h-3.088c-.774,27.488-1.699,44.165-2.935,63.313l-4.17,61.304Z"/>
    <path d="M1650.025,433.738V233.456h-19.458v-15.905h57.754v15.905h-19.458v200.282h-18.838Z"/>
    <path d="M1732.018,433.738l-18.994-216.187h19.455l7.568,116.896c1.235,19.302,2.007,35.979,2.624,63.621h2.935c.771-27.642,1.543-44.319,2.778-63.621l7.566-116.896h18.53l-18.53,216.187h-23.933Z"/>
    <path d="M1805.12,433.738V217.552h18.994v216.187h-18.994Z"/>
    <path d="M1859.533,433.738V217.552h40.61v15.905h-21.616v75.974h18.374v15.442h-18.374v92.806h23.162v16.06h-42.156Z"/>
    <path d="M1929.391,399.304v-35.98l18.53-4.169v42.002c0,13.279,2.935,19.766,9.265,19.766,6.177,0,9.265-6.487,9.265-19.766,0-16.523-4.941-36.135-14.36-63.931l-9.575-27.795c-9.419-27.64-12.817-46.016-12.817-61.457,0-22.391,8.804-32.429,26.56-32.429,17.913,0,26.253,10.038,26.253,31.039v34.435l-18.223,4.016v-39.841c0-10.19-2.778-14.978-8.337-14.978s-8.34,4.788-8.34,14.978c0,14.207,2.935,30.421,12.354,57.754l9.729,27.64c9.575,27.333,14.978,49.723,14.978,68.717,0,24.552-8.955,36.443-27.795,36.443-18.066,0-27.485-11.891-27.485-36.443Zm48.179-224.989l-11.89,31.193h-18.53l-11.892-31.193h13.589l7.566,16.986,7.568-16.986h13.589Z"/>
    <path d="M2017.622,404.553V217.552h18.994v186.693c0,12.043,2.624,16.522,8.801,16.522,6.331,0,8.801-4.479,8.801-16.522V217.552h18.838v187.001c0,22.083-8.647,31.194-27.639,31.194s-27.795-9.111-27.795-31.194Z"/>
  </g>
  <g>
    <path d="M2151.311,433.738V217.552h26.406c20.381,0,29.802,11.736,29.802,35.208v146.079c0,23.164-9.422,34.9-29.802,34.9h-26.406Zm18.994-15.596h6.331c8.647,0,12.043-6.177,12.043-18.994V252.606c0-13.281-3.396-19.612-12.043-19.612h-6.331v185.149Z"/>
    <path d="M2235.528,433.738v-12.507l27.332-170.789c.925-5.249,2.161-11.272,3.396-16.06l-.771-1.543c-4.17,.154-6.484,.154-10.347,.154h-16.985v-15.442h46.479v12.354l-27.178,171.404c-.925,5.405-2.007,10.347-3.396,15.598l.771,1.389c3.399-.154,5.559-.154,8.801-.154h22.546v15.596h-50.649Z"/>
    <path d="M2316.814,433.738V217.552h18.992v216.187h-18.992Z"/>
    <path d="M2371.227,433.738V217.552h40.613v15.906h-21.621v75.974h18.377v15.442h-18.377v92.805h23.164v16.06h-42.156Z"/>
    <path d="M2441.084,399.302v-35.979l18.53-4.17v42.002c0,13.281,2.932,19.766,9.265,19.766,6.177,0,9.265-6.484,9.265-19.766,0-16.521-4.941-36.133-14.363-63.928l-9.573-27.795c-9.419-27.642-12.817-46.018-12.817-61.46,0-22.39,8.801-32.427,26.56-32.427,17.913,0,26.253,10.037,26.253,31.038v34.436l-18.223,4.014v-39.839c0-10.193-2.778-14.978-8.337-14.978s-8.34,4.785-8.34,14.978c0,14.207,2.935,30.42,12.354,57.751l9.729,27.642c9.573,27.332,14.978,49.722,14.978,68.716,0,24.553-8.955,36.443-27.795,36.443-18.066,0-27.485-11.89-27.485-36.443Z"/>
    <path d="M2529.315,433.738V217.552h30.574l11.89,115.659c1.699,16.37,3.091,36.599,4.48,67.637h2.778c1.389-31.038,2.781-51.267,4.634-67.327l12.2-115.969h31.191v216.187h-18.838l.154-105.469c.154-22.544,.771-45.554,2.471-77.363l-2.935-.31-19.766,183.142h-21.311l-18.53-183.142-3.086,.156c1.389,31.655,1.85,54.973,1.85,77.517l.156,105.469h-17.913Z"/>
    <path d="M2662.642,404.554V217.552h18.994v186.692c0,12.046,2.624,16.523,8.801,16.523,6.331,0,8.801-4.477,8.801-16.523V217.552h18.838v187.002c0,22.083-8.647,31.191-27.639,31.191s-27.795-9.109-27.795-31.191Z"/>
    <path d="M2796.331,404.554V217.552h18.994v186.692c0,12.046,2.624,16.523,8.801,16.523,6.331,0,8.801-4.477,8.801-16.523V217.552h18.838v187.002c0,22.083-8.647,31.191-27.639,31.191s-27.795-9.109-27.795-31.191Z"/>
    <path d="M2887.346,433.738V217.552h27.332l16.677,129.712c1.699,12.971,3.706,29.495,5.713,50.339l3.088-.308c-1.853-23.779-3.396-55.591-3.396-78.445l-.31-101.299h18.377v216.187h-26.25l-17.605-131.257c-1.853-13.896-3.242-26.557-5.559-50.029l-3.088,.308c1.545,22.39,3.088,55.283,3.088,75.203l.308,105.776h-18.374Z"/>
  </g>
  <g>
    <path d="M3399.477,433.738V217.552h26.406c20.381,0,29.802,11.736,29.802,35.208v146.082c0,23.162-9.422,34.897-29.802,34.897h-26.406Zm18.994-15.596h6.331c8.647,0,12.043-6.177,12.043-18.994V252.606c0-13.281-3.396-19.612-12.043-19.612h-6.331v185.149Z"/>
    <path d="M3490.538,433.738V217.552h40.613v15.906h-21.621v75.974h18.377v15.442h-18.377v92.805h23.164v16.06h-42.156Z"/>
    <path d="M3640.399,404.554V217.552h18.992v186.692c0,12.046,2.627,16.523,8.804,16.523,6.331,0,8.801-4.477,8.801-16.523V217.552h18.84v187.002c0,22.08-8.647,31.191-27.642,31.191s-27.795-9.111-27.795-31.191Z"/>
    <path d="M3609.189,217.484h-39.075v15.906h20.235v172.026c0,10.193-2.778,15.134-9.109,15.134-6.177,0-8.801-4.941-8.801-15.134v-33.201l-18.994,4.17v29.185c0,20.23,8.801,30.112,27.795,30.112,19.148,0,27.949-9.883,27.949-30.112V217.489h0v-.005Z"/>
  </g>
  <g>
    <path d="M3802.193,302.945c-9.419-27.331-12.354-43.545-12.354-57.751,0-10.193,2.781-14.981,8.34-14.981s8.337,4.788,8.337,14.981v39.839l18.223-4.014v-34.436c0-21.001-8.34-31.038-26.253-31.038-17.759,0-26.56,10.037-26.56,32.427,0,15.442,3.399,33.818,12.817,61.46l9.573,27.795c9.422,27.795,14.363,47.405,14.363,63.928,0,13.281-3.088,19.766-9.265,19.766-6.333,0-9.265-6.484-9.265-19.766v-42.002l-18.53,4.17v35.979c0,24.553,9.419,36.443,27.485,36.443,18.84,0,27.795-11.89,27.795-36.443,0-18.992-5.405-41.384-14.978-68.716l-9.729-27.642Z"/>
    <path d="M3887.834,334.446c-1.235,19.302-2.007,35.982-2.778,63.621h-2.935c-.618-27.639-1.389-44.319-2.624-63.621l-7.566-116.894h-19.458l18.994,216.186h23.936l18.53-216.186h-18.53l-7.568,116.894Z"/>
    <polygon points="3961.851 324.874 3980.227 324.874 3980.227 309.432 3961.851 309.432 3961.851 233.458 3983.472 233.458 3983.472 217.552 3942.859 217.552 3942.859 433.738 3985.015 433.738 3985.015 417.679 3961.851 417.679 3961.851 324.874"/>
    <rect x="3943.167" y="191.456" width="41.541" height="15.286"/>
    <polygon points="4011.101 233.458 4030.559 233.458 4030.559 433.738 4049.396 433.738 4049.396 233.458 4068.855 233.458 4068.855 217.552 4011.101 217.552 4011.101 233.458"/>
    <path d="M4139.603,217.552l-24.246,95.122-2.624-.308c2.935-26.716,3.86-42.776,3.86-63.313v-31.501h-18.992v216.186h18.992v-93.423l7.722-24.553,14.36,117.976h18.994l-20.537-141.294,20.537-74.892h-18.066Z"/>
    <rect x="4186.471" y="217.552" width="18.994" height="216.186"/>
  </g>
  <g>
    <g>
      <path d="M680.168,433.738l-18.994-216.187h19.458l7.566,116.896c1.235,19.302,2.007,35.979,2.624,63.621h2.935c.771-27.642,1.543-44.319,2.778-63.621l7.568-116.896h18.53l-18.53,216.187h-23.936Z"/>
      <path d="M753.268,433.738V217.552h18.994v216.187h-18.994Z"/>
      <path d="M805.212,399.304v-35.98l18.53-4.169v42.002c0,13.279,2.932,19.766,9.265,19.766,6.177,0,9.265-6.487,9.265-19.766,0-16.523-4.941-36.135-14.363-63.931l-9.573-27.795c-9.419-27.64-12.817-46.016-12.817-61.457,0-22.391,8.801-32.429,26.56-32.429,17.913,0,26.253,10.038,26.253,31.039v34.435l-18.223,4.016v-39.841c0-10.19-2.778-14.978-8.337-14.978s-8.34,4.788-8.34,14.978c0,14.207,2.935,30.421,12.354,57.754l9.729,27.64c9.573,27.333,14.978,49.723,14.978,68.717,0,24.552-8.955,36.443-27.795,36.443-18.066,0-27.485-11.891-27.485-36.443Z"/>
      <path d="M893.444,433.738V217.552h25.015c21.465,0,30.73,11.891,30.73,38.451v60.995c0,25.634-10.037,37.987-30.73,37.987h-6.023v78.754h-18.992Zm18.992-94.196h5.098c9.111,0,12.661-5.405,12.661-20.074v-66.091c0-14.979-3.55-20.383-12.661-20.383h-5.098v106.549Z"/>
      <path d="M973.801,433.738l19.302-216.187h23.936l19.458,216.187h-19.304l-2.932-41.384h-18.84l-3.242,41.384h-18.377Zm10.654-226.996v-15.288h41.538v15.288h-41.538Zm11.736,171.096h16.987l-4.016-61.304c-1.235-19.148-2.007-35.825-2.778-63.313h-3.088c-.774,27.488-1.699,44.165-2.935,63.313l-4.17,61.304Z"/>
      <path d="M1067.13,433.738V217.552h25.015c21.465,0,30.73,11.891,30.73,38.451v29.493c0,20.538-6.794,30.729-20.847,33.354v2.316c11.89,2.317,17.759,8.803,18.687,36.135l.925,27.485c.925,27.488,2.007,41.077,6.177,46.018l-.464,2.933h-20.383c-2.161-9.728-3.242-21.619-3.706-48.334l-.618-26.714c-.618-26.714-4.631-30.884-14.67-30.884h-1.85v105.931h-18.994Zm18.994-121.527h4.014c9.575,0,13.896-6.332,13.896-21.465v-35.825c0-15.906-4.321-21.927-13.896-21.927h-4.014v79.218Z"/>
    </g>
    <path d="M1158.453,433.738V217.552h40.613v15.904h-21.621v75.974h18.376v15.442h-18.376v92.806h23.164v16.06h-42.156Zm.308-226.996v-15.288h41.541v15.288h-41.541Z"/>
    <path d="M1312.684,433.738V217.552h18.994v216.186h-18.994Z"/>
    <path d="M1367.258,433.738V217.552h40.61v15.904h-21.616v75.974h18.374v15.442h-18.374v92.806h23.162v16.06h-42.156Z"/>
    <path d="M1277.104,217.536h-39.075v15.906h20.235v172.026c0,10.193-2.778,15.134-9.109,15.134-6.177,0-8.801-4.941-8.801-15.134v-33.201l-18.994,4.17v29.185c0,20.23,8.801,30.112,27.795,30.112,19.148,0,27.949-9.883,27.949-30.112V217.542h0v-.005Z"/>
  </g>
</svg>