<?xml version="1.0" encoding="UTF-8"?>
<svg id="a" data-name="Layer 1" xmlns="http://www.w3.org/2000/svg" width="2002.351" height="2002.87" viewBox="0 0 2002.351 2002.87">
  <path d="M1001.894,335.703c-367.034,0-665.637,298.603-665.637,665.637s298.603,665.643,665.637,665.643,665.644-298.609,665.644-665.643S1368.929,335.703,1001.894,335.703Zm612.585,636.638l-307.732-307.728c29.221-43.693,64.32-83.822,104.761-119.282,118.238,106.313,195.051,257.787,202.971,427.01ZM1030.893,388.762c127.145,5.95,244.273,50.783,339.765,122.869-38.624,34.741-72.628,73.456-101.588,115.305l-238.177-238.174Zm159.116,233.115h-376.227l188.112-188.113,188.115,188.113Zm-370.517,743.732V831.173l26.889-7.515c65.883-18.427,118.507-13.17,156.408,15.591,37.856,28.723,60.453,81.927,60.453,142.317,0,195.132-238.909,380.332-241.324,382.184l-2.427,1.859Zm-6.317-538.944l-276.768,276.774-102.089-102.099,378.857-378.857v204.182Zm-46.007,120.007v387.527l-193.768-193.765,193.768-193.762Zm205.727,667.251c-53.162-2.488-104.589-11.723-153.404-26.96v-126.446l153.404,153.405Zm28.998-45.002l-156.934-156.932,8.741-6.68c2.663-2.031,65.889-50.662,129.887-126.362,87.574-103.592,131.977-203.646,131.977-297.383,0-76.658-30.332-145.441-81.148-183.999-31.507-23.901-85.37-47.137-168.92-31.987v-91.38h373.773c-56.282,98.277-86.75,210.512-86.75,327.14,0,117.58,30.841,230.471,87.816,329.139l-238.443,238.443Zm267.147-193.145c28.965,41.829,62.935,80.56,101.584,115.302-95.485,72.072-212.6,116.896-339.731,122.845l238.147-238.147Zm-64.197-374.437c0-103.231,25.902-202.742,73.954-290.676l290.679,290.676-290.714,290.714c-48.028-87.869-73.919-187.328-73.919-290.714Zm-231.948-612.578L389.316,972.341c14.748-315.151,268.429-568.832,583.58-583.579ZM389.316,1030.338l377.853,377.857v159.682c-213.569-88.818-366.5-294.951-377.853-537.539Zm1022.194,427.012c-40.464-35.46-75.608-75.543-104.831-119.212l307.8-307.799c-7.92,169.222-84.731,320.697-202.969,427.012Z"/>
</svg>